<?xml version="1.0" encoding="UTF-8"?>
<svg version="1.1" xmlns="http://www.w3.org/2000/svg" width="500" height="500">
<path d="M0 0 C165 0 330 0 500 0 C500 165 500 330 500 500 C335 500 170 500 0 500 C0 335 0 170 0 0 Z " fill="#000000" transform="translate(0,0)"/>
<path d="M0 0 C8.25 0 16.5 0 25 0 C29.88555507 11.47469046 34.33395657 23.11194379 38.8125 34.75 C39.60857589 36.81516125 40.40479865 38.88026589 41.20117188 40.9453125 C43.13580862 45.96289017 45.06862979 50.98116413 47 56 C48.76716794 53.3492481 49.80889056 51.16915159 50.93945312 48.22485352 C51.31324097 47.25697403 51.68702881 46.28909454 52.07214355 45.29188538 C52.47114868 44.24810226 52.87015381 43.20431915 53.28125 42.12890625 C53.69540161 41.05503159 54.10955322 39.98115692 54.53625488 38.8747406 C55.86095606 35.43864482 57.18080563 32.00071335 58.5 28.5625 C59.81976555 25.12808282 61.14059036 21.694084 62.46374512 18.26097107 C63.2872295 16.12381444 64.10866958 13.98586874 64.92785645 11.84706116 C65.30164429 10.87602951 65.67543213 9.90499786 66.06054688 8.90454102 C66.55113586 7.625718 66.55113586 7.625718 67.05163574 6.32106018 C67.93101749 4.16883024 68.96024946 2.07950109 70 0 C78.25 0 86.5 0 95 0 C96.82770502 14.72317932 98.19290367 29.47240353 99.5 44.25 C99.61016449 45.48669434 99.72032898 46.72338867 99.83383179 47.99755859 C101.43444557 65.98954857 102.87321961 83.97151384 104 102 C96.08 102 88.16 102 80 102 C79.5625 93.3125 79.5625 93.3125 79.43188477 90.6027832 C79.39377686 89.88437256 79.35566895 89.16596191 79.31640625 88.42578125 C79.27974854 87.69786377 79.24309082 86.96994629 79.20532227 86.2199707 C79.04114232 83.97335267 79.04114232 83.97335267 78.51147461 81.70068359 C77.86116786 78.26693979 77.678983 74.84584812 77.5 71.36328125 C77.41669221 69.88476419 77.3333581 68.4062486 77.25 66.92773438 C77.12373546 64.61033625 76.99894984 62.29286485 76.875 59.9753418 C76.75363816 57.72943673 76.62703487 55.48387145 76.5 53.23828125 C76.46455078 52.54245438 76.42910156 51.8466275 76.39257812 51.12971497 C76.21844156 47.44128275 76.21844156 47.44128275 75 44 C72.63267609 50.67071932 70.26669155 57.3419126 67.90161133 64.01342773 C67.097879 66.28013716 66.29384685 68.5467403 65.48950195 70.81323242 C64.32944019 74.0822362 63.17047845 77.35162823 62.01171875 80.62109375 C61.65534836 81.62458359 61.29897797 82.62807343 60.93180847 83.66197205 C58.89178466 89.42179944 56.91344137 95.19685429 55 101 C50.05 101 45.1 101 40 101 C33.4 81.86 26.8 62.72 20 43 C18.39807138 57.43496417 18.39807138 57.43496417 17.4375 71.875 C17.12703294 79.36584349 17.12703294 79.36584349 16.5078125 82.45703125 C15.75691113 86.21731425 15.63324448 89.98871395 15.4375 93.8125 C15.293125 96.514375 15.14875 99.21625 15 102 C7.08 102 -0.84 102 -9 102 C-8.30211211 90.91124231 -7.40788188 79.85407534 -6.40625 68.7890625 C-6.25301012 67.08329352 -6.09989579 65.37751325 -5.94689941 63.67172241 C-5.62859356 60.1269168 -5.30914089 56.58221717 -4.98876953 53.03759766 C-4.5801247 48.51583375 -4.17385832 43.99386006 -3.76837921 39.47181129 C-3.45341678 35.96114364 -3.13747383 32.45056477 -2.82121277 28.94001389 C-2.67108158 27.27282195 -2.52118454 25.60560891 -2.37153625 23.93837357 C-2.16205229 21.60677807 -1.9513125 19.27529931 -1.74023438 16.94384766 C-1.6498011 15.93369598 -1.6498011 15.93369598 -1.55754089 14.90313721 C-1.10488574 9.92482163 -0.55235648 4.97120836 0 0 Z " fill="#5ADDE2" transform="translate(134,183)"/>
<path d="M0 0 C7.59 0 15.18 0 23 0 C23 13.53 23 27.06 23 41 C33.89 41 44.78 41 56 41 C56 27.47 56 13.94 56 0 C63.59 0 71.18 0 79 0 C79 33.66 79 67.32 79 102 C71.41 102 63.82 102 56 102 C56 88.47 56 74.94 56 61 C45.11 61 34.22 61 23 61 C23 74.53 23 88.06 23 102 C15.41 102 7.82 102 0 102 C0 68.34 0 34.68 0 0 Z " fill="#FDFDFD" transform="translate(247,183)"/>
<path d="M0 0 C4.01683753 2.04493547 6.61561784 4.19989094 9 8 C9.89461434 12.52855168 10.0496672 17.08410258 7.79296875 21.203125 C4.10035715 25.65295569 0.96491526 27.80984691 -4.875 28.375 C-9.19484309 28.26237839 -11.66918786 26.7885869 -15 24 C-17.92326467 20.67352641 -18.919392 18.08820799 -19.25 13.625 C-18.88029143 8.26422576 -16.99159972 6.08834115 -13.4375 2.1875 C-9.37573595 -1.01329162 -4.92866039 -0.87353493 0 0 Z " fill="#5ADDE1" transform="translate(360,259)"/>
</svg>
